# xmcd
#
# Track frame offsets: 
#        150
#        16275
#        36767
#        55935
#        75290
#        94840
#        114570
#        132945
#        153255
#        170205
#        192017
#        214965
#        237840
#        255632
#        275505
#        294240
#        317425
#        338965
#
# Disc length: 4655 seconds
#
# Revision: 15
# Processed by: cddbd v1.5.2PL0 Copyright (c) Steve Scherf et al.
# Submitted via: ExactAudioCopy v0.99pb5
#
DISCID=f6122d12
DTITLE=Whitney Houston - The Greatest Hits - CD 2 (Throw Down)
DYEAR=2000
DGENRE=Dance
TTITLE0=Fine
TTITLE1=If I Told You That
TTITLE2=It's Not Right But It's Okay (Thunderpuss Mix)
TTITLE3=My Love Is Your Love [Jonathan Peters Mix]
TTITLE4=Heartbreak Hotel [Hex Hector Mix]
TTITLE5=I Learned From The Best [HQ2 Mix]
TTITLE6=Step by Step [Junior Vasquez Mix]
TTITLE7=I'm Every Woman [Clivilles and Cole Mix]
TTITLE8=Queen of the Night [CJ Mackintosh Mix]
TTITLE9=I Will Always Love You [Hex Hector Mix]
TTITLE10=Love Will Save the Day [Jeallybean/David Morales Mix]
TTITLE11=I'm Your Baby Tonight [Dronez Mix]
TTITLE12=So Emotional [David Morales Mix]
TTITLE13=I Wanna Dance with Somebody (Who Loves Me) [Junior Vasquez Mi
TTITLE13=x]
TTITLE14=How Will I Know [Junior Vasquez Mix]
TTITLE15=Greatest Love of All [Junior Vasquez Mix]
TTITLE16=One Moment in Time
TTITLE17=The Star Spangled Banner [bonus]
EXTD=Arista Records
EXTT0=
EXTT1=
EXTT2=
EXTT3=
EXTT4=
EXTT5=
EXTT6=
EXTT7=
EXTT8=
EXTT9=
EXTT10=
EXTT11=
EXTT12=
EXTT13=
EXTT14=
EXTT15=
EXTT16=
EXTT17=Live 1/27/91 at Super Bowl XXV
PLAYORDER=
